<svg width="1200" height="300" viewBox="0 0 1200 300" xmlns="http://www.w3.org/2000/svg">
    <defs>
          <linearGradient id="bg" x1="0" y1="0" x2="1200" y2="300" gradientUnits="userSpaceOnUse">
                  <stop offset="0" stop-color="#0d1117"/>
                  <stop offset="1" stop-color="#111827"/>
          </linearGradient>
          <linearGradient id="accent" x1="0" y1="0" x2="1" y2="0">
                  <stop offset="0" stop-color="#6366F1"/>
                  <stop offset="1" stop-color="#22D3EE"/>
          </linearGradient>
          <linearGradient id="flowline" x1="0" y1="0" x2="1" y2="0">
                  <stop offset="0" stop-color="#6366F1" stop-opacity="0"/>
                  <stop offset="0.5" stop-color="#6366F1" stop-opacity="0.55"/>
                  <stop offset="1" stop-color="#22D3EE" stop-opacity="0.15"/>
          </linearGradient>
    </defs>

    <rect width="1200" height="300" fill="url(#bg)"/>

    <g stroke-width="1.6" fill="none" opacity="0.9">
          <path d="M 640 40  C 820 40, 880 90, 1160 70"  stroke="url(#flowline)"/>
          <path d="M 660 90  C 840 90, 900 130, 1170 118" stroke="url(#flowline)"/>
          <path d="M 620 145 C 800 145, 870 175, 1150 168" stroke="url(#flowline)"/>
          <path d="M 660 200 C 840 200, 900 230, 1170 222" stroke="url(#flowline)"/>
          <path d="M 630 255 C 810 255, 880 265, 1160 262" stroke="url(#flowline)"/>
    </g>
    <g fill="#22D3EE">
          <circle cx="1160" cy="70" r="3.4"/>
          <circle cx="1170" cy="118" r="3.4"/>
          <circle cx="1150" cy="168" r="3.4"/>
          <circle cx="1170" cy="222" r="3.4"/>
          <circle cx="1160" cy="262" r="3.4"/>
    </g>

    <rect x="64" y="86" width="4" height="128" fill="url(#accent)"/>

    <text x="92" y="112" font-family="SFMono-Regular, Consolas, monospace" font-size="15" fill="#22D3EE" letter-spacing="2">DATA ENGINEER // BUILDING FOR SCALE</text>
    <text x="90" y="168" font-family="Helvetica, Arial, sans-serif" font-size="54" font-weight="700" fill="#f0f3f8">Kasi Rahul M</text>
    <text x="92" y="204" font-family="Helvetica, Arial, sans-serif" font-size="19" fill="#8b949e">Data Engineering &#183; AI Systems &#183; Cloud</text>
</svg>
